<?xml version="1.0" encoding="UTF-8" standalone="no"?>
<svg width="231px" height="30px" viewBox="0 0 231 30" version="1.1" xmlns="http://www.w3.org/2000/svg" xmlns:xlink="http://www.w3.org/1999/xlink">
    <!-- Generator: Sketch 39.1 (31720) - http://www.bohemiancoding.com/sketch -->
    <title>Layer_1</title>
    <desc>Created with Sketch.</desc>
    <defs></defs>
    <g id="Page-1" stroke="none" stroke-width="1" fill="none" fill-rule="evenodd">
        <g id="Layer_1">
            <polygon id="Shape" fill="#F08F00" points="3.244 8.453 9.492 8.453 9.492 14.701 3.244 14.701"></polygon>
            <polygon id="Shape" fill="#F08F00" points="38.435 16.539 51.483 16.539 51.483 29.587 38.435 29.587"></polygon>
            <polygon id="Shape" fill="#F08F00" points="41.835 8.453 48.083 8.453 48.083 14.701 41.835 14.701"></polygon>
            <polygon id="Shape" fill="#F08F00" points="16.53 11.32 34.797 11.32 34.797 29.587 16.53 29.587"></polygon>
            <polygon id="Shape" fill="#F08F00" points="21.29 0 30.037 0 30.037 8.748 21.29 8.748"></polygon>
            <path d="M72.932,29.931 C66.091,29.931 64.937,26.713 64.937,19.5 C64.937,12.497 67.104,9.894 72.932,9.894 C74.359,9.894 77.34,10.254 77.466,10.27 L77.762,10.306 L77.647,12.138 L77.313,12.097 C77.284,12.093 74.32,11.725 72.932,11.725 C68.408,11.725 66.955,13.614 66.955,19.5 C66.955,25.846 67.858,28.099 72.932,28.099 C74.323,28.099 77.362,27.767 77.393,27.764 L77.723,27.728 L77.837,29.559 L77.536,29.592 C77.407,29.605 74.357,29.931 72.932,29.931" id="Shape" fill="#FFFFFF"></path>
            <path d="M83.85,29.594 L81.906,29.594 L81.906,10.231 L83.85,10.231 L83.85,12.858 C84.937,12.124 87.645,10.481 90.891,9.861 L91.267,9.789 L91.267,11.707 L91.011,11.756 C87.835,12.372 84.555,14.417 83.85,14.876 L83.85,29.594" id="Shape" fill="#FFFFFF"></path>
            <path d="M100.69,11.725 C96.053,11.725 94.713,13.469 94.713,19.5 C94.713,26.058 95.537,28.099 100.69,28.099 C105.943,28.099 106.517,25.369 106.517,19.575 C106.517,13.999 104.829,11.725 100.69,11.725 L100.69,11.725 Z M100.69,29.931 C93.891,29.931 92.694,26.567 92.694,19.5 C92.694,12.497 94.861,9.894 100.69,9.894 C106.116,9.894 108.536,12.879 108.536,19.575 C108.536,26.443 107.323,29.931 100.69,29.931 L100.69,29.931 Z" id="Shape" fill="#FFFFFF"></path>
            <polyline id="Shape" fill="#FFFFFF" points="131.724 29.594 128.702 29.594 123.764 13.566 118.791 29.594 115.769 29.594 110.541 10.231 112.581 10.231 117.312 27.661 122.823 10.605 124.745 10.605 130.22 27.661 134.987 10.231 137.029 10.231 131.724 29.594"></polyline>
            <path d="M147.215,11.725 C141.996,11.725 140.975,14.864 140.975,20.287 C140.975,28.099 144.271,28.099 145.679,28.099 C148.389,28.099 151.169,26.658 151.843,26.284 L151.843,12.139 L151.565,12.105 C150.392,11.963 148.43,11.725 147.215,11.725 L147.215,11.725 Z M145.679,29.931 C143.69,29.931 139.032,29.931 139.032,20.174 C139.032,12.872 141.402,9.894 147.215,9.894 C148.933,9.894 150.996,10.167 151.843,10.291 L151.843,2.738 L153.787,2.738 L153.787,29.594 L151.843,29.594 L151.843,28.247 C150.833,28.788 148.378,29.931 145.679,29.931 L145.679,29.931 Z" id="Shape" fill="#FFFFFF"></path>
            <path d="M171.848,10.504 L171.694,14.342 C171.694,14.342 168.631,13.993 167.157,13.993 C163.205,13.993 162.312,15.466 162.312,19.652 C162.312,24.304 163.127,25.816 167.196,25.816 C168.67,25.816 171.732,25.467 171.732,25.467 L171.848,29.304 C171.848,29.304 167.894,30.002 165.84,30.002 C159.948,30.002 157.816,27.017 157.816,19.652 C157.816,12.713 160.181,9.768 165.955,9.768 C168.05,9.768 171.848,10.504 171.848,10.504" id="Shape" fill="#FFFFFF"></path>
            <path d="M191.035,10.233 L191.035,29.576 L186.617,29.576 L186.617,28.607 C186.617,28.607 183.594,30.002 181.499,30.002 C175.918,30.002 174.793,27.134 174.793,20.35 L174.793,10.233 L179.213,10.233 L179.213,20.311 C179.213,24.42 179.445,26.009 182.392,26.009 C184.097,26.009 186.617,25.118 186.617,25.118 L186.617,10.233 L191.035,10.233" id="Shape" fill="#FFFFFF"></path>
            <path d="M206.665,19.652 C206.665,15.389 205.502,13.877 203.021,13.877 C201.315,13.877 198.912,14.419 198.912,14.419 L198.912,25.816 C198.912,25.816 200.928,26.009 201.664,26.009 C205.812,26.009 206.665,24.226 206.665,19.652 L206.665,19.652 Z M211.161,19.652 C211.161,27.715 208.604,30.002 201.703,30.002 C199.688,30.002 194.493,29.498 194.493,29.498 L194.493,2.209 L198.912,2.209 L198.912,10.814 C198.912,10.814 201.549,9.768 203.603,9.768 C208.875,9.768 211.161,12.403 211.161,19.652 L211.161,19.652 Z" id="Shape" fill="#FFFFFF"></path>
            <path d="M226.018,18.334 C226.018,14.962 224.894,13.722 222.142,13.722 C219.39,13.722 218.188,15.117 218.188,18.334 L226.018,18.334 L226.018,18.334 Z M229.661,25.622 L229.739,29.072 C229.739,29.072 225.319,30.002 221.871,30.002 C216.017,30.002 213.729,26.94 213.729,20.118 C213.729,13.063 216.753,9.768 222.142,9.768 C227.646,9.768 230.398,12.598 230.398,18.606 L230.088,21.784 L218.188,21.784 C218.225,24.614 219.39,25.971 222.528,25.971 C225.591,25.971 229.661,25.622 229.661,25.622 L229.661,25.622 Z" id="Shape" fill="#FFFFFF"></path>
            <polygon id="Shape" fill="#F08F00" points="0 16.539 13.048 16.539 13.048 29.587 0 29.587"></polygon>
        </g>
    </g>
</svg>